<svg width="96" height="96" viewBox="0 0 96 96" fill="none" xmlns="http://www.w3.org/2000/svg">
<path fill-rule="evenodd" clip-rule="evenodd" d="M8 20H88C89.1046 20 90 20.8954 90 22V58C90 59.1046 89.1046 60 88 60H8C6.89543 60 6 59.1046 6 58V22C6 20.8954 6.89543 20 8 20ZM8 22V58H88V22H8ZM46.9747 34.7677L52.914 28.8284L69.7927 45.7071C69.9802 45.8946 70.2346 46 70.4998 46C71.3907 46 71.8369 44.9229 71.2069 44.2929L52.914 26L45.5605 33.3535L41.207 29L25.9141 44.2929C25.2842 44.9229 25.7303 46 26.6212 46C26.8865 46 27.1408 45.8946 27.3284 45.7071L41.207 31.8284L55.0857 45.7071C55.2732 45.8946 55.5276 46 55.7928 46C56.6837 46 57.1299 44.9229 56.4999 44.2929L46.9747 34.7677Z" fill="#CFD8DC"/>
<path fill-rule="evenodd" clip-rule="evenodd" d="M36 54V56H12V54H36Z" fill="#CFD8DC"/>
<path fill-rule="evenodd" clip-rule="evenodd" d="M68 54V56H84V54H68Z" fill="#CFD8DC"/>
<path fill-rule="evenodd" clip-rule="evenodd" d="M52 50V52H12V50H52Z" fill="#CFD8DC"/>
<path fill-rule="evenodd" clip-rule="evenodd" d="M68 50V52H84V50H68Z" fill="#CFD8DC"/>
<path fill-rule="evenodd" clip-rule="evenodd" d="M16 64H8C6.89543 64 6 64.8954 6 66V74C6 75.1046 6.89543 76 8 76H16C17.1046 76 18 75.1046 18 74V66C18 64.8954 17.1046 64 16 64ZM8 74V66H16V74H8Z" fill="#CFD8DC"/>
<path fill-rule="evenodd" clip-rule="evenodd" d="M34 64H26C24.8954 64 24 64.8954 24 66V74C24 75.1046 24.8954 76 26 76H34C35.1046 76 36 75.1046 36 74V66C36 64.8954 35.1046 64 34 64ZM26 74V66H34V74H26Z" fill="#CFD8DC"/>
<path fill-rule="evenodd" clip-rule="evenodd" d="M52 64H44C42.8954 64 42 64.8954 42 66V74C42 75.1046 42.8954 76 44 76H52C53.1046 76 54 75.1046 54 74V66C54 64.8954 53.1046 64 52 64ZM44 74V66H52V74H44Z" fill="#CFD8DC"/>
<path fill-rule="evenodd" clip-rule="evenodd" d="M70 64H62C60.8954 64 60 64.8954 60 66V74C60 75.1046 60.8954 76 62 76H70C71.1046 76 72 75.1046 72 74V66C72 64.8954 71.1046 64 70 64ZM62 74V66H70V74H62Z" fill="#CFD8DC"/>
<path fill-rule="evenodd" clip-rule="evenodd" d="M88 64H80C78.8954 64 78 64.8954 78 66V74C78 75.1046 78.8954 76 80 76H88C89.1046 76 90 75.1046 90 74V66C90 64.8954 89.1046 64 88 64ZM80 74V66H88V74H80Z" fill="#CFD8DC"/>
</svg>
