<svg width="96" height="96" viewBox="0 0 96 96" fill="none" xmlns="http://www.w3.org/2000/svg">
<path fill-rule="evenodd" clip-rule="evenodd" d="M88 28H38C36.8954 28 36 28.8954 36 30V66C36 67.1046 36.8954 68 38 68H88C89.1046 68 90 67.1046 90 66V61.5002L90.0002 61.5L90 61.4999V30C90 28.8954 89.1046 28 88 28ZM67.9139 40L88 59.5529V30H38V60.4695L55.2071 43L60.0604 47.8534L67.9139 40ZM61.4747 49.2676L78.2071 66H88V62.3449L67.9139 42.8284L61.4747 49.2676ZM75.3787 66L55.2071 45.8284L38 63.3188V66H75.3787Z" fill="#CFD8DC"/>
<path fill-rule="evenodd" clip-rule="evenodd" d="M32 34V36H12V34H32ZM32 38V40H12V38H32ZM32 56V58H12V56H32ZM28 60V62H12V60H28Z" fill="#CFD8DC"/>
<path d="M7 30C7 29.4477 7.44772 29 8 29H37V67H8C7.44772 67 7 66.5523 7 66V30Z" stroke="#CFD8DC" stroke-width="2"/>
</svg>
