<svg width="167" height="46" viewBox="0 0 167 46" fill="none" xmlns="http://www.w3.org/2000/svg">
<path d="M2.85714 10.201H0V18H20V10.201H17.1429V15.164H2.85714V10.201Z" fill="#69C200"/>
<path fill-rule="evenodd" clip-rule="evenodd" d="M10 5.62372L1.71504 12.3755L0 10.1535L9.97815 2.02186L9.99502 2L10 2.00405L10.005 2L10.0218 2.02186L20 10.1535L18.285 12.3755L10 5.62372Z" fill="#69C200"/>
<path d="M32.9917 17.8225H25.3333V4.85292H32.9917V7.10619H28.1529V9.95383H32.6552V12.2071H28.1529V15.5515H32.9917V17.8225Z" fill="#263238"/>
<path d="M43.6244 14.2209C43.6244 15.3918 43.1908 16.3144 42.3237 16.9886C41.4627 17.6629 40.2621 18 38.7219 18C37.303 18 36.0478 17.7397 34.9564 17.2193V14.6644C35.8538 15.0547 36.6117 15.3297 37.2302 15.4894C37.8548 15.6491 38.4248 15.7289 38.9402 15.7289C39.5587 15.7289 40.0316 15.6136 40.3591 15.383C40.6926 15.1523 40.8593 14.8093 40.8593 14.3539C40.8593 14.0996 40.7866 13.8749 40.641 13.6797C40.4955 13.4786 40.2803 13.2864 39.9953 13.1031C39.7163 12.9197 39.1433 12.627 38.2762 12.2248C37.4637 11.8523 36.8543 11.4945 36.448 11.1514C36.0418 10.8084 35.7173 10.4092 35.4748 9.95383C35.2323 9.49844 35.111 8.96618 35.111 8.35702C35.111 7.20969 35.5081 6.30779 36.3025 5.65132C37.1029 4.99486 38.2065 4.66663 39.6133 4.66663C40.3045 4.66663 40.9624 4.74647 41.587 4.90615C42.2176 5.06583 42.8755 5.29056 43.5607 5.58035L42.6511 7.7183C41.9417 7.43442 41.3535 7.2363 40.8866 7.12393C40.4258 7.01157 39.971 6.95538 39.5223 6.95538C38.9887 6.95538 38.5794 7.07662 38.2944 7.3191C38.0094 7.56158 37.8669 7.87798 37.8669 8.26831C37.8669 8.51079 37.9245 8.7237 38.0397 8.90703C38.1549 9.08446 38.3369 9.25892 38.5855 9.43043C38.8401 9.59603 39.4374 9.89765 40.3773 10.3353C41.6203 10.9149 42.4723 11.4974 42.9331 12.0829C43.3939 12.6625 43.6244 13.3751 43.6244 14.2209Z" fill="#263238"/>
<path d="M51.1645 17.8225H48.3449V7.14168H44.734V4.85292H54.7755V7.14168H51.1645V17.8225Z" fill="#263238"/>
<path d="M64.9624 17.8225L63.9983 14.7354H59.1504L58.1863 17.8225H55.1484L59.8416 4.79969H63.2888L68.0003 17.8225H64.9624ZM63.3252 12.4289C62.4339 9.63151 61.9306 8.04949 61.8154 7.68282C61.7062 7.31614 61.6274 7.02635 61.5789 6.81344C61.3788 7.57045 60.8058 9.44226 59.8598 12.4289H63.3252Z" fill="#263238"/>
<path d="M74.8128 17.8225H71.9932V7.14168H68.3823V4.85292H78.4238V7.14168H74.8128V17.8225Z" fill="#263238"/>
<path d="M80.4702 17.8225V4.85292H83.2899V17.8225H80.4702Z" fill="#263238"/>
<path d="M97.3333 17.8225H94.1317L90.6481 12.3579L89.4566 13.1918V17.8225H86.637V4.85292H89.4566V10.7877L90.5663 9.26188L94.1681 4.85292H97.2969L92.6582 10.5926L97.3333 17.8225Z" fill="#263238"/>
<rect x="105" width="36" height="19" rx="6" fill="#69C200"/>
<path d="M116.53 10.4658H114.719V9.32324H116.53C116.81 9.32324 117.038 9.27767 117.214 9.18652C117.39 9.09212 117.518 8.96191 117.6 8.7959C117.681 8.62988 117.722 8.44271 117.722 8.23438C117.722 8.02279 117.681 7.82585 117.6 7.64355C117.518 7.46126 117.39 7.31478 117.214 7.2041C117.038 7.09342 116.81 7.03809 116.53 7.03809H115.227V13H113.762V5.89062H116.53C117.087 5.89062 117.564 5.99154 117.961 6.19336C118.361 6.39193 118.667 6.66699 118.879 7.01855C119.09 7.37012 119.196 7.77214 119.196 8.22461C119.196 8.68359 119.09 9.08073 118.879 9.41602C118.667 9.7513 118.361 10.0101 117.961 10.1924C117.564 10.3747 117.087 10.4658 116.53 10.4658ZM120.207 5.89062H122.858C123.402 5.89062 123.869 5.97201 124.26 6.13477C124.654 6.29753 124.956 6.53841 125.168 6.85742C125.38 7.17643 125.485 7.56868 125.485 8.03418C125.485 8.41504 125.42 8.74219 125.29 9.01562C125.163 9.28581 124.982 9.51204 124.748 9.69434C124.517 9.87337 124.245 10.0166 123.933 10.124L123.469 10.3682H121.164L121.154 9.22559H122.868C123.125 9.22559 123.339 9.18001 123.508 9.08887C123.677 8.99772 123.804 8.87077 123.889 8.70801C123.977 8.54525 124.021 8.35645 124.021 8.1416C124.021 7.91374 123.978 7.7168 123.894 7.55078C123.809 7.38477 123.68 7.25781 123.508 7.16992C123.335 7.08203 123.119 7.03809 122.858 7.03809H121.672V13H120.207V5.89062ZM124.182 13L122.561 9.83105L124.108 9.82129L125.749 12.9316V13H124.182ZM132.453 9.2793V9.61621C132.453 10.1566 132.38 10.6416 132.233 11.0713C132.087 11.501 131.88 11.8672 131.613 12.1699C131.346 12.4694 131.027 12.6989 130.656 12.8584C130.288 13.0179 129.88 13.0977 129.431 13.0977C128.985 13.0977 128.576 13.0179 128.205 12.8584C127.837 12.6989 127.518 12.4694 127.248 12.1699C126.978 11.8672 126.768 11.501 126.618 11.0713C126.472 10.6416 126.398 10.1566 126.398 9.61621V9.2793C126.398 8.73568 126.472 8.25065 126.618 7.82422C126.765 7.39453 126.971 7.02832 127.238 6.72559C127.508 6.42285 127.827 6.19173 128.195 6.03223C128.566 5.87272 128.975 5.79297 129.421 5.79297C129.87 5.79297 130.279 5.87272 130.646 6.03223C131.018 6.19173 131.337 6.42285 131.604 6.72559C131.874 7.02832 132.082 7.39453 132.229 7.82422C132.378 8.25065 132.453 8.73568 132.453 9.2793ZM130.974 9.61621V9.26953C130.974 8.89193 130.939 8.5599 130.871 8.27344C130.803 7.98698 130.702 7.74609 130.568 7.55078C130.435 7.35547 130.272 7.20898 130.08 7.11133C129.888 7.01042 129.668 6.95996 129.421 6.95996C129.174 6.95996 128.954 7.01042 128.762 7.11133C128.573 7.20898 128.412 7.35547 128.278 7.55078C128.148 7.74609 128.049 7.98698 127.98 8.27344C127.912 8.5599 127.878 8.89193 127.878 9.26953V9.61621C127.878 9.99056 127.912 10.3226 127.98 10.6123C128.049 10.8988 128.15 11.1413 128.283 11.3398C128.417 11.5352 128.579 11.6833 128.771 11.7842C128.964 11.8851 129.183 11.9355 129.431 11.9355C129.678 11.9355 129.898 11.8851 130.09 11.7842C130.282 11.6833 130.443 11.5352 130.573 11.3398C130.703 11.1413 130.803 10.8988 130.871 10.6123C130.939 10.3226 130.974 9.99056 130.974 9.61621Z" fill="white"/>
<path d="M76.7441 37.7051L79.2578 30.4688H80.4824L77.3242 39H76.4512L76.7441 37.7051ZM74.3945 30.4688L76.8848 37.7051L77.1953 39H76.3223L73.1699 30.4688H74.3945ZM83.8398 39.1172C83.3984 39.1172 82.998 39.043 82.6387 38.8945C82.2832 38.7422 81.9766 38.5293 81.7188 38.2559C81.4648 37.9824 81.2695 37.6582 81.1328 37.2832C80.9961 36.9082 80.9277 36.498 80.9277 36.0527V35.8066C80.9277 35.291 81.0039 34.832 81.1562 34.4297C81.3086 34.0234 81.5156 33.6797 81.7773 33.3984C82.0391 33.1172 82.3359 32.9043 82.668 32.7598C83 32.6152 83.3438 32.543 83.6992 32.543C84.1523 32.543 84.543 32.6211 84.8711 32.7773C85.2031 32.9336 85.4746 33.1523 85.6855 33.4336C85.8965 33.7109 86.0527 34.0391 86.1543 34.418C86.2559 34.793 86.3066 35.2031 86.3066 35.6484V36.1348H81.5723V35.25H85.2227V35.168C85.207 34.8867 85.1484 34.6133 85.0469 34.3477C84.9492 34.082 84.793 33.8633 84.5781 33.6914C84.3633 33.5195 84.0703 33.4336 83.6992 33.4336C83.4531 33.4336 83.2266 33.4863 83.0195 33.5918C82.8125 33.6934 82.6348 33.8457 82.4863 34.0488C82.3379 34.252 82.2227 34.5 82.1406 34.793C82.0586 35.0859 82.0176 35.4238 82.0176 35.8066V36.0527C82.0176 36.3535 82.0586 36.6367 82.1406 36.9023C82.2266 37.1641 82.3496 37.3945 82.5098 37.5938C82.6738 37.793 82.8711 37.9492 83.1016 38.0625C83.3359 38.1758 83.6016 38.2324 83.8984 38.2324C84.2812 38.2324 84.6055 38.1543 84.8711 37.998C85.1367 37.8418 85.3691 37.6328 85.5684 37.3711L86.2246 37.8926C86.0879 38.0996 85.9141 38.2969 85.7031 38.4844C85.4922 38.6719 85.2324 38.8242 84.9238 38.9414C84.6191 39.0586 84.2578 39.1172 83.8398 39.1172ZM88.6562 33.6562V39H87.5723V32.6602H88.627L88.6562 33.6562ZM90.6367 32.625L90.6309 33.6328C90.541 33.6133 90.4551 33.6016 90.373 33.5977C90.2949 33.5898 90.2051 33.5859 90.1035 33.5859C89.8535 33.5859 89.6328 33.625 89.4414 33.7031C89.25 33.7812 89.0879 33.8906 88.9551 34.0312C88.8223 34.1719 88.7168 34.3398 88.6387 34.5352C88.5645 34.7266 88.5156 34.9375 88.4922 35.168L88.1875 35.3438C88.1875 34.9609 88.2246 34.6016 88.2988 34.2656C88.377 33.9297 88.4961 33.6328 88.6562 33.375C88.8164 33.1133 89.0195 32.9102 89.2656 32.7656C89.5156 32.6172 89.8125 32.543 90.1562 32.543C90.2344 32.543 90.3242 32.5527 90.4258 32.5723C90.5273 32.5879 90.5977 32.6055 90.6367 32.625ZM95.3301 37.3184C95.3301 37.1621 95.2949 37.0176 95.2246 36.8848C95.1582 36.748 95.0195 36.625 94.8086 36.5156C94.6016 36.4023 94.2891 36.3047 93.8711 36.2227C93.5195 36.1484 93.2012 36.0605 92.916 35.959C92.6348 35.8574 92.3945 35.7344 92.1953 35.5898C92 35.4453 91.8496 35.2754 91.7441 35.0801C91.6387 34.8848 91.5859 34.6562 91.5859 34.3945C91.5859 34.1445 91.6406 33.9082 91.75 33.6855C91.8633 33.4629 92.0215 33.2656 92.2246 33.0938C92.4316 32.9219 92.6797 32.7871 92.9688 32.6895C93.2578 32.5918 93.5801 32.543 93.9355 32.543C94.4434 32.543 94.877 32.6328 95.2363 32.8125C95.5957 32.9922 95.8711 33.2324 96.0625 33.5332C96.2539 33.8301 96.3496 34.1602 96.3496 34.5234H95.2656C95.2656 34.3477 95.2129 34.1777 95.1074 34.0137C95.0059 33.8457 94.8555 33.707 94.6562 33.5977C94.4609 33.4883 94.2207 33.4336 93.9355 33.4336C93.6348 33.4336 93.3906 33.4805 93.2031 33.5742C93.0195 33.6641 92.8848 33.7793 92.7988 33.9199C92.7168 34.0605 92.6758 34.209 92.6758 34.3652C92.6758 34.4824 92.6953 34.5879 92.7344 34.6816C92.7773 34.7715 92.8516 34.8555 92.957 34.9336C93.0625 35.0078 93.2109 35.0781 93.4023 35.1445C93.5938 35.2109 93.8379 35.2773 94.1348 35.3438C94.6543 35.4609 95.082 35.6016 95.418 35.7656C95.7539 35.9297 96.0039 36.1309 96.168 36.3691C96.332 36.6074 96.4141 36.8965 96.4141 37.2363C96.4141 37.5137 96.3555 37.7676 96.2383 37.998C96.125 38.2285 95.959 38.4277 95.7402 38.5957C95.5254 38.7598 95.2676 38.8887 94.9668 38.9824C94.6699 39.0723 94.3359 39.1172 93.9648 39.1172C93.4062 39.1172 92.9336 39.0176 92.5469 38.8184C92.1602 38.6191 91.8672 38.3613 91.668 38.0449C91.4688 37.7285 91.3691 37.3945 91.3691 37.043H92.459C92.4746 37.3398 92.5605 37.5762 92.7168 37.752C92.873 37.9238 93.0645 38.0469 93.291 38.1211C93.5176 38.1914 93.7422 38.2266 93.9648 38.2266C94.2617 38.2266 94.5098 38.1875 94.709 38.1094C94.9121 38.0312 95.0664 37.9238 95.1719 37.7871C95.2773 37.6504 95.3301 37.4941 95.3301 37.3184ZM99.0156 32.6602V39H97.9258V32.6602H99.0156ZM97.8438 30.9785C97.8438 30.8027 97.8965 30.6543 98.002 30.5332C98.1113 30.4121 98.2715 30.3516 98.4824 30.3516C98.6895 30.3516 98.8477 30.4121 98.957 30.5332C99.0703 30.6543 99.127 30.8027 99.127 30.9785C99.127 31.1465 99.0703 31.291 98.957 31.4121C98.8477 31.5293 98.6895 31.5879 98.4824 31.5879C98.2715 31.5879 98.1113 31.5293 98.002 31.4121C97.8965 31.291 97.8438 31.1465 97.8438 30.9785ZM100.469 35.9004V35.7656C100.469 35.3086 100.535 34.8848 100.668 34.4941C100.801 34.0996 100.992 33.7578 101.242 33.4688C101.492 33.1758 101.795 32.9492 102.15 32.7891C102.506 32.625 102.904 32.543 103.346 32.543C103.791 32.543 104.191 32.625 104.547 32.7891C104.906 32.9492 105.211 33.1758 105.461 33.4688C105.715 33.7578 105.908 34.0996 106.041 34.4941C106.174 34.8848 106.24 35.3086 106.24 35.7656V35.9004C106.24 36.3574 106.174 36.7812 106.041 37.1719C105.908 37.5625 105.715 37.9043 105.461 38.1973C105.211 38.4863 104.908 38.7129 104.553 38.877C104.201 39.0371 103.803 39.1172 103.357 39.1172C102.912 39.1172 102.512 39.0371 102.156 38.877C101.801 38.7129 101.496 38.4863 101.242 38.1973C100.992 37.9043 100.801 37.5625 100.668 37.1719C100.535 36.7812 100.469 36.3574 100.469 35.9004ZM101.553 35.7656V35.9004C101.553 36.2168 101.59 36.5156 101.664 36.7969C101.738 37.0742 101.85 37.3203 101.998 37.5352C102.15 37.75 102.34 37.9199 102.566 38.0449C102.793 38.166 103.057 38.2266 103.357 38.2266C103.654 38.2266 103.914 38.166 104.137 38.0449C104.363 37.9199 104.551 37.75 104.699 37.5352C104.848 37.3203 104.959 37.0742 105.033 36.7969C105.111 36.5156 105.15 36.2168 105.15 35.9004V35.7656C105.15 35.4531 105.111 35.1582 105.033 34.8809C104.959 34.5996 104.846 34.3516 104.693 34.1367C104.545 33.918 104.357 33.7461 104.131 33.6211C103.908 33.4961 103.646 33.4336 103.346 33.4336C103.049 33.4336 102.787 33.4961 102.561 33.6211C102.338 33.7461 102.15 33.918 101.998 34.1367C101.85 34.3516 101.738 34.5996 101.664 34.8809C101.59 35.1582 101.553 35.4531 101.553 35.7656ZM108.684 34.0137V39H107.6V32.6602H108.625L108.684 34.0137ZM108.426 35.5898L107.975 35.5723C107.979 35.1387 108.043 34.7383 108.168 34.3711C108.293 34 108.469 33.6777 108.695 33.4043C108.922 33.1309 109.191 32.9199 109.504 32.7715C109.82 32.6191 110.17 32.543 110.553 32.543C110.865 32.543 111.146 32.5859 111.396 32.6719C111.646 32.7539 111.859 32.8867 112.035 33.0703C112.215 33.2539 112.352 33.4922 112.445 33.7852C112.539 34.0742 112.586 34.4277 112.586 34.8457V39H111.496V34.834C111.496 34.502 111.447 34.2363 111.35 34.0371C111.252 33.834 111.109 33.6875 110.922 33.5977C110.734 33.5039 110.504 33.457 110.23 33.457C109.961 33.457 109.715 33.5137 109.492 33.627C109.273 33.7402 109.084 33.8965 108.924 34.0957C108.768 34.2949 108.645 34.5234 108.555 34.7812C108.469 35.0352 108.426 35.3047 108.426 35.5898ZM122.857 36.1289V37.0195H116.693V36.3809L120.514 30.4688H121.398L120.449 32.1797L117.924 36.1289H122.857ZM121.668 30.4688V39H120.584V30.4688H121.668ZM123.977 38.4258C123.977 38.2422 124.033 38.0879 124.146 37.9629C124.264 37.834 124.432 37.7695 124.65 37.7695C124.869 37.7695 125.035 37.834 125.148 37.9629C125.266 38.0879 125.324 38.2422 125.324 38.4258C125.324 38.6055 125.266 38.7578 125.148 38.8828C125.035 39.0078 124.869 39.0703 124.65 39.0703C124.432 39.0703 124.264 39.0078 124.146 38.8828C124.033 38.7578 123.977 38.6055 123.977 38.4258ZM130.568 30.4219V39H129.484V31.7754L127.299 32.5723V31.5938L130.398 30.4219H130.568ZM133.891 38.4258C133.891 38.2422 133.947 38.0879 134.061 37.9629C134.178 37.834 134.346 37.7695 134.564 37.7695C134.783 37.7695 134.949 37.834 135.062 37.9629C135.18 38.0879 135.238 38.2422 135.238 38.4258C135.238 38.6055 135.18 38.7578 135.062 38.8828C134.949 39.0078 134.783 39.0703 134.564 39.0703C134.346 39.0703 134.178 39.0078 134.061 38.8828C133.947 38.7578 133.891 38.6055 133.891 38.4258ZM140.482 30.4219V39H139.398V31.7754L137.213 32.5723V31.5938L140.312 30.4219H140.482Z" fill="#B0BEC5"/>
</svg>
