<svg width="96" height="96" viewBox="0 0 96 96" fill="none" xmlns="http://www.w3.org/2000/svg">
<path fill-rule="evenodd" clip-rule="evenodd" d="M88 28H8C6.89543 28 6 28.8954 6 30V66C6 67.1046 6.89543 68 8 68H88C89.1046 68 90 67.1046 90 66V30C90 28.8954 89.1046 28 88 28ZM8 66V30H88V66H8Z" fill="#CFD8DC"/>
<path d="M84 47V45H64V47H84Z" fill="#CFD8DC"/>
<path d="M84 51V49H64V51H84Z" fill="#CFD8DC"/>
<path d="M59 40C59 39.4477 59.4477 39 60 39H89V57H60C59.4477 57 59 56.5523 59 56V40Z" stroke="#CFD8DC" stroke-width="2"/>
<path fill-rule="evenodd" clip-rule="evenodd" d="M22 34H14C12.8954 34 12 34.8954 12 36V44C12 45.1046 12.8954 46 14 46H22C23.1046 46 24 45.1046 24 44V36C24 34.8954 23.1046 34 22 34ZM14 44V36H22V44H14Z" fill="#CFD8DC"/>
<path fill-rule="evenodd" clip-rule="evenodd" d="M22 50H14C12.8954 50 12 50.8954 12 52V60C12 61.1046 12.8954 62 14 62H22C23.1046 62 24 61.1046 24 60V52C24 50.8954 23.1046 50 22 50ZM14 60V52H22V60H14Z" fill="#CFD8DC"/>
<path fill-rule="evenodd" clip-rule="evenodd" d="M26 54.2466V51.3884L34.1213 43L38.4748 47.3535L45.8284 40L56 50.1716V53.0001L45.8284 42.8284L39.889 48.7677L57.3284 66.2071L55.9142 67.6213L34.1213 45.8284L26 54.2466Z" fill="#CFD8DC"/>
</svg>
