<svg width="96" height="96" viewBox="0 0 96 96" fill="none" xmlns="http://www.w3.org/2000/svg">
<path fill-rule="evenodd" clip-rule="evenodd" d="M88 28H8C6.89543 28 6 28.8954 6 30V66C6 67.1046 6.89543 68 8 68H88C89.1046 68 90 67.1046 90 66V30C90 28.8954 89.1046 28 88 28ZM8 66V30H88V58.717L68.8283 40L61.4748 47.3535L57.1213 43L35.1974 66H8ZM37.9547 66H77.293L57.1213 45.8284L37.9547 66ZM80.1214 66H88V61.5127L68.8283 42.8284L62.8891 48.7677L80.1214 66Z" fill="#CFD8DC"/>
<path d="M12 47V45H32V47H12Z" fill="#CFD8DC"/>
<path d="M12 51V49H32V51H12Z" fill="#CFD8DC"/>
<path d="M37 40C37 39.4477 36.5523 39 36 39H7V57H36C36.5523 57 37 56.5523 37 56V40Z" stroke="#CFD8DC" stroke-width="2"/>
</svg>
