<svg width="20" height="20" viewBox="0 0 20 20" fill="none" xmlns="http://www.w3.org/2000/svg">
<path fill-rule="evenodd" clip-rule="evenodd" d="M13.4506 0.403639C14.5126 0.10019 15.6196 0.715175 15.923 1.77724C15.9741 1.95593 16 2.14085 16 2.32669V4.00096H18C19.1046 4.00096 20 4.89639 20 6.00096V18.001C20 19.1055 19.1046 20.001 18 20.001H2C0.89543 20.001 0 19.1055 0 18.001H0.0267034C0.00895177 17.8934 0 17.7845 0 17.6752V5.75526C0 4.8623 0.591955 4.07753 1.45056 3.83221L13.4506 0.403639ZM8.14005 18.001H18V10.001H16V14.2467C16 15.1396 15.408 15.9244 14.5494 16.1697L8.14005 18.001ZM18 6.00096V8.00096H16V6.00096H18ZM2 5.75523V17.6752L14 14.2466V2.32666L2 5.75523ZM12 8.00096C12 8.55324 11.5523 9.00096 11 9.00096C10.4477 9.00096 10 8.55324 10 8.00096C10 7.44867 10.4477 7.00096 11 7.00096C11.5523 7.00096 12 7.44867 12 8.00096Z" fill="#263238"/>
</svg>
