<svg width="16" height="16" viewBox="0 0 16 16" fill="none" xmlns="http://www.w3.org/2000/svg">
<path fill-rule="evenodd" clip-rule="evenodd" d="M7.99935 15.3327C3.94926 15.3327 0.666016 12.0494 0.666016 7.99935C0.666016 3.94926 3.94926 0.666016 7.99935 0.666016C12.0494 0.666016 15.3327 3.94926 15.3327 7.99935C15.3327 12.0494 12.0494 15.3327 7.99935 15.3327ZM7.99935 13.9993C11.3131 13.9993 13.9993 11.3131 13.9993 7.99935C13.9993 4.68564 11.3131 1.99935 7.99935 1.99935C4.68564 1.99935 1.99935 4.68564 1.99935 7.99935C1.99935 11.3131 4.68564 13.9993 7.99935 13.9993ZM5.80406 11.1374L7.99932 8.94215L10.1946 11.1374L11.1374 10.1946L8.94213 7.99934L11.1374 5.80408L10.1946 4.86127L7.99932 7.05654L5.80406 4.86127L4.86125 5.80408L7.05652 7.99934L4.86125 10.1946L5.80406 11.1374Z" fill="white"/>
</svg>
