<svg width="44" height="44" viewBox="0 0 44 44" fill="none" xmlns="http://www.w3.org/2000/svg">
<path fill-rule="evenodd" clip-rule="evenodd" d="M28 30V28H16V30H28ZM28 34V32H16V34H28Z" fill="#556068"/>
<path fill-rule="evenodd" clip-rule="evenodd" d="M32 4H12C10.8954 4 10 4.89543 10 6V38C10 39.1046 10.8954 40 12 40H32C33.1046 40 34 39.1046 34 38V6C34 4.89543 33.1046 4 32 4ZM12 38V6H32V38H12Z" fill="#556068"/>
<path fill-rule="evenodd" clip-rule="evenodd" d="M22 26.2126L23.0962 25.2554C27.0116 21.8366 29 18.8112 29 16C29 12.0214 25.8965 9 22 9C18.1035 9 15 12.0214 15 16C15 18.8112 16.9884 21.8366 20.9038 25.2554L22 26.2126ZM22 11C24.8038 11 27 13.1382 27 16C27 18.047 25.3727 20.5659 22 23.556C18.6273 20.5659 17 18.047 17 16C17 13.1382 19.1962 11 22 11ZM22 13C23.6569 13 25 14.3431 25 16C25 17.6569 23.6569 19 22 19C20.3431 19 19 17.6569 19 16C19 14.3431 20.3431 13 22 13ZM21 16C21 15.4477 21.4477 15 22 15C22.5523 15 23 15.4477 23 16C23 16.5523 22.5523 17 22 17C21.4477 17 21 16.5523 21 16Z" fill="#556068"/>
<path d="M36 36H38C39.1046 36 40 35.1046 40 34V10C40 8.89543 39.1046 8 38 8H36V10H38V34H36V36Z" fill="#556068"/>
<path d="M8 36H6C4.89543 36 4 35.1046 4 34V10C4 8.89543 4.89543 8 6 8H8V10H6V34H8V36Z" fill="#556068"/>
</svg>
