<svg width="24" height="24" viewBox="0 0 24 24" fill="none" xmlns="http://www.w3.org/2000/svg">
<path d="M19.8906 7.66406H4.10938C3.14012 7.66406 2.35156 8.45262 2.35156 9.42188V16.4531C2.35156 17.4224 3.14012 18.2109 4.10938 18.2109H19.8906C20.8599 18.2109 21.6484 17.4224 21.6484 16.4531V9.42188C21.6484 8.45262 20.8599 7.66406 19.8906 7.66406ZM6.98988 13.8491C6.84008 13.8491 6.58414 13.8502 6.34457 13.8514V15.2029C6.34457 15.5264 6.08223 15.7888 5.75863 15.7888C5.43504 15.7888 5.1727 15.5264 5.1727 15.2029L5.16406 10.7519C5.16355 10.5962 5.22508 10.4466 5.335 10.3363C5.44492 10.226 5.5943 10.1641 5.75 10.1641H6.98988C8.01941 10.1641 8.85703 10.9906 8.85703 12.0066C8.85703 13.0226 8.01941 13.8491 6.98988 13.8491ZM12.0199 15.6475C11.6709 15.6536 10.798 15.6569 10.761 15.6571C10.7602 15.6571 10.7595 15.6571 10.7587 15.6571C10.6041 15.6571 10.4557 15.596 10.346 15.487C10.2357 15.3775 10.1734 15.2287 10.1728 15.0732C10.1728 15.0576 10.1641 10.7511 10.1641 10.7511C10.1638 10.5955 10.2254 10.4462 10.3353 10.3361C10.4452 10.226 10.5944 10.1641 10.75 10.1641H11.9738C13.368 10.1641 14.3048 11.2678 14.3048 12.9106C14.3048 14.4733 13.3438 15.6244 12.0199 15.6475ZM18.0242 12.2871C18.3478 12.2871 18.6102 12.5495 18.6102 12.873C18.6102 13.1966 18.3478 13.459 18.0242 13.459H16.9609V15.125C16.9609 15.4486 16.6986 15.7109 16.375 15.7109C16.0514 15.7109 15.7891 15.4486 15.7891 15.125V10.7048C15.7891 10.3812 16.0514 10.1188 16.375 10.1188H18.1665C18.4901 10.1188 18.7525 10.3812 18.7525 10.7048C18.7525 11.0284 18.4901 11.2907 18.1665 11.2907H16.9609V12.2871H18.0242Z" fill="#B0BEC5"/>
<path d="M11.9737 11.3359H11.3369C11.3378 11.8648 11.341 13.9732 11.3427 14.4821C11.5865 14.4806 11.8476 14.4784 11.9993 14.4758C12.7823 14.4621 13.1328 13.6798 13.1328 12.9106C13.1328 12.5412 13.0492 11.3359 11.9737 11.3359Z" fill="#B0BEC5"/>
<path d="M6.98983 11.3359H6.33765C6.33835 11.5967 6.33901 11.8741 6.33901 12.0066C6.33901 12.1615 6.34011 12.4301 6.34136 12.6796C6.58183 12.6784 6.8387 12.6773 6.98987 12.6773C7.36675 12.6773 7.68515 12.3702 7.68515 12.0066C7.68515 11.643 7.36671 11.3359 6.98983 11.3359Z" fill="#B0BEC5"/>
<path d="M19.2834 6.49219C19.1476 6.11992 18.9366 5.77586 18.6573 5.48125L16.2236 2.91402C15.6729 2.33316 14.8979 2 14.0975 2H6.29688C5.32762 2 4.53906 2.78855 4.53906 3.75781V6.49219H19.2834Z" fill="#B0BEC5"/>
<path d="M4.53906 19.3828V20.2422C4.53906 21.2114 5.32762 22 6.29688 22H17.7031C18.6724 22 19.4609 21.2114 19.4609 20.2422V19.3828H4.53906Z" fill="#B0BEC5"/>
</svg>
