<svg width="16" height="17" viewBox="0 0 16 17" fill="none" xmlns="http://www.w3.org/2000/svg">
<path fill-rule="evenodd" clip-rule="evenodd" d="M8 16.0518L8.43849 15.6689C12.1258 12.4492 14 9.63792 14 7.16675C14 3.66719 11.2686 1.16675 8 1.16675C4.73137 1.16675 2 3.66719 2 7.16675C2 9.63792 3.87421 12.4492 7.56151 15.6689L8 16.0518ZM8 14.2757C4.87107 11.4558 3.33333 9.06624 3.33333 7.16675C3.33333 4.43115 5.44274 2.50008 8 2.50008C10.5573 2.50008 12.6667 4.43115 12.6667 7.16675C12.6667 9.06624 11.1289 11.4558 8 14.2757ZM8 3.83341C9.84095 3.83341 11.3333 5.3258 11.3333 7.16675C11.3333 9.0077 9.84095 10.5001 8 10.5001C6.15905 10.5001 4.66667 9.0077 4.66667 7.16675C4.66667 5.3258 6.15905 3.83341 8 3.83341ZM6 7.16675C6 6.06218 6.89543 5.16675 8 5.16675C9.10457 5.16675 10 6.06218 10 7.16675C10 8.27132 9.10457 9.16675 8 9.16675C6.89543 9.16675 6 8.27132 6 7.16675Z" fill="#B0BEC5"/>
</svg>
