<svg width="240" height="96" viewBox="0 0 240 96" fill="none" xmlns="http://www.w3.org/2000/svg">
<rect width="240" height="96" fill="#ECEFF1"/>
<path fill-rule="evenodd" clip-rule="evenodd" d="M118 39H122C123.105 39 124 39.8954 124 41V42H128C129.105 42 130 42.8954 130 44V55C130 56.1046 129.105 57 128 57H112C110.895 57 110 56.1046 110 55V44C110 42.8954 110.895 42 112 42H116V41C116 39.8954 116.895 39 118 39ZM112 44H116H124H128V49H121H119H112V44ZM112 55V51H119V52H121V51H128V55H112ZM122 41V42H118V41H122Z" fill="#CFD8DC"/>
</svg>
