<svg width="64" height="18" viewBox="0 0 64 18" fill="none" xmlns="http://www.w3.org/2000/svg">
<path d="M49.474 5.08984H46.02C45.8168 5.08984 45.6137 5.29302 45.5121 5.49619L44.0898 14.4358C44.0898 14.639 44.1914 14.7406 44.3946 14.7406H46.2232C46.4264 14.7406 46.5279 14.639 46.5279 14.4358L46.9343 11.8962C46.9343 11.693 47.1375 11.4898 47.4422 11.4898H48.5597C50.8962 11.4898 52.2168 10.3724 52.5216 8.13745C52.7248 7.22317 52.5216 6.41048 52.1152 5.90254C51.5057 5.39461 50.5914 5.08984 49.474 5.08984ZM49.8803 8.44221C49.6771 9.66126 48.7629 9.66126 47.8486 9.66126H47.2391L47.6454 7.32476C47.6454 7.22317 47.747 7.12158 47.9502 7.12158H48.1533C48.7629 7.12158 49.3724 7.12158 49.6771 7.52793C49.8803 7.62952 49.8803 7.93428 49.8803 8.44221Z" fill="#139AD6"/>
<path d="M24.5833 5.08984H21.1294C20.9262 5.08984 20.723 5.29302 20.6214 5.49619L19.1992 14.4358C19.1992 14.639 19.3008 14.7406 19.504 14.7406H21.1294C21.3326 14.7406 21.5357 14.5374 21.6373 14.3343L22.0437 11.8962C22.0437 11.693 22.2468 11.4898 22.5516 11.4898H23.6691C26.0056 11.4898 27.3262 10.3724 27.631 8.13745C27.8341 7.22317 27.631 6.41048 27.2246 5.90254C26.6151 5.39461 25.8024 5.08984 24.5833 5.08984ZM24.9897 8.44221C24.7865 9.66126 23.8722 9.66126 22.9579 9.66126H22.45L22.8564 7.32476C22.8564 7.22317 22.9579 7.12158 23.1611 7.12158H23.3643C23.9738 7.12158 24.5833 7.12158 24.8881 7.52793C24.9897 7.62952 25.0913 7.93428 24.9897 8.44221Z" fill="#263B80"/>
<path d="M35.0479 8.33989H33.4225C33.321 8.33989 33.1178 8.44148 33.1178 8.54307L33.0162 9.051L32.9146 8.84783C32.5083 8.33989 31.7972 8.13672 30.9845 8.13672C29.1559 8.13672 27.5305 9.55894 27.2257 11.4891C27.0226 12.505 27.3273 13.4192 27.8353 14.0288C28.3432 14.6383 29.0543 14.8415 29.9686 14.8415C31.4924 14.8415 32.3051 13.9272 32.3051 13.9272L32.2035 14.4351C32.2035 14.6383 32.3051 14.7399 32.5083 14.7399H34.0321C34.2352 14.7399 34.4384 14.5367 34.54 14.3335L35.4543 8.64465C35.3527 8.54307 35.1495 8.33989 35.0479 8.33989ZM32.7114 11.5907C32.5083 12.505 31.7972 13.2161 30.7813 13.2161C30.2734 13.2161 29.867 13.0129 29.6638 12.8097C29.4607 12.505 29.3591 12.0986 29.3591 11.5907C29.4607 10.6764 30.2734 9.96529 31.1876 9.96529C31.6956 9.96529 32.0003 10.1685 32.3051 10.3716C32.6098 10.6764 32.7114 11.1843 32.7114 11.5907Z" fill="#263B80"/>
<path d="M59.8351 8.34185H58.2097C58.1081 8.34185 57.9049 8.44343 57.9049 8.54502L57.8033 9.05295L57.7017 8.84978C57.2954 8.34185 56.5843 8.13867 55.7716 8.13867C53.943 8.13867 52.3176 9.56089 52.0129 11.491C51.8097 12.5069 52.1144 13.4212 52.6224 14.0307C53.1303 14.6402 53.8414 14.8434 54.7557 14.8434C56.2795 14.8434 57.0922 13.9291 57.0922 13.9291L56.9906 14.4371C56.9906 14.6402 57.0922 14.7418 57.2954 14.7418H58.8192C59.0224 14.7418 59.2255 14.5386 59.3271 14.3355L60.2414 8.64661C60.1398 8.54502 60.0382 8.34185 59.8351 8.34185ZM57.4986 11.5926C57.2954 12.5069 56.5843 13.218 55.5684 13.218C55.0605 13.218 54.6541 13.0148 54.4509 12.8117C54.2478 12.5069 54.1462 12.1006 54.1462 11.5926C54.2478 10.6783 55.0605 9.96724 55.9748 9.96724C56.4827 9.96724 56.7874 10.1704 57.0922 10.3736C57.4986 10.6783 57.6001 11.1863 57.4986 11.5926Z" fill="#139AD6"/>
<path d="M43.8848 8.33984H42.1578C41.9546 8.33984 41.853 8.44143 41.7514 8.54302L39.5165 11.997L38.5006 8.74619C38.399 8.54302 38.2974 8.44143 37.9927 8.44143H36.3673C36.1641 8.44143 36.0625 8.64461 36.0625 8.84778L37.8911 14.2319L36.1641 16.67C36.0625 16.8732 36.1641 17.178 36.3673 17.178H37.9927C38.1958 17.178 38.2974 17.0764 38.399 16.9748L43.9863 8.94937C44.2911 8.64461 44.0879 8.33984 43.8848 8.33984Z" fill="#263B80"/>
<path d="M61.766 5.39537L60.3438 14.5382C60.3438 14.7414 60.4453 14.843 60.6485 14.843H62.0707C62.2739 14.843 62.4771 14.6398 62.5787 14.4366L64.0009 5.49696C64.0009 5.29378 63.8993 5.1922 63.6961 5.1922H62.0707C61.9691 5.09061 61.8676 5.1922 61.766 5.39537Z" fill="#139AD6"/>
<path d="M11.6825 2.04327C10.9714 1.23057 9.65079 0.824219 7.82222 0.824219H2.74286C2.4381 0.824219 2.13333 1.12898 2.03175 1.43374L0 14.7417C0 15.0464 0.203175 15.2496 0.406349 15.2496H3.55556L4.36825 10.2718V10.475C4.46984 10.1703 4.7746 9.86549 5.07937 9.86549H6.60318C9.54921 9.86549 11.7841 8.64644 12.4952 5.29406C12.4952 5.19247 12.4952 5.09088 12.4952 4.9893C12.3937 4.9893 12.3937 4.9893 12.4952 4.9893C12.5968 3.66866 12.3937 2.85596 11.6825 2.04327Z" fill="#263B80"/>
<path d="M12.3929 4.98828C12.3929 5.08987 12.3929 5.19146 12.3929 5.29304C11.6817 8.74701 9.44683 9.86447 6.50079 9.86447H4.97698C4.67222 9.86447 4.36746 10.1692 4.26587 10.474L3.25 16.6708C3.25 16.874 3.35159 17.0772 3.65635 17.0772H6.29762C6.60238 17.0772 6.90714 16.874 6.90714 16.5692V16.4676L7.41508 13.3184V13.1153C7.41508 12.8105 7.71984 12.6073 8.0246 12.6073H8.43095C10.9706 12.6073 13.0024 11.5915 13.5103 8.54384C13.7135 7.32479 13.6119 6.20733 13.0024 5.49622C12.9008 5.29304 12.6976 5.08987 12.3929 4.98828Z" fill="#139AD6"/>
<path d="M11.6834 4.68367C11.5818 4.68367 11.4803 4.58208 11.3787 4.58208C11.2771 4.58208 11.1755 4.58208 11.0739 4.48049C10.6676 4.3789 10.2612 4.37891 9.75327 4.37891H5.79136C5.68978 4.37891 5.58819 4.3789 5.4866 4.48049C5.28343 4.58208 5.18184 4.78525 5.18184 4.98843L4.36914 10.271V10.4741C4.47073 10.1694 4.77549 9.86462 5.08025 9.86462H6.60406C9.55009 9.86462 11.785 8.64557 12.4961 5.29319C12.4961 5.1916 12.4961 5.09002 12.5977 4.98843C12.3945 4.88684 12.293 4.78526 12.0898 4.78526C11.785 4.68367 11.785 4.68367 11.6834 4.68367Z" fill="#232C65"/>
</svg>
